<?xml version="1.0" encoding="UTF-8"?>
<svg width="108px" height="108px" viewBox="0 0 108 108" version="1.1" xmlns="http://www.w3.org/2000/svg" xmlns:xlink="http://www.w3.org/1999/xlink">
    <!-- Generator: Sketch 53.2 (72643) - https://sketchapp.com -->
    <title>titan</title>
    <desc>Created with Sketch.</desc>
    <defs>
        <circle id="path-1" cx="54" cy="54" r="54"></circle>
    </defs>
    <g id="Page-1" stroke="none" stroke-width="1" fill="none" fill-rule="evenodd">
        <g id="titan-logo">
            <mask id="mask-2" fill="white">
                <use xlink:href="#path-1"></use>
            </mask>
            <use id="Mask" fill="#8247E5" xlink:href="#path-1"></use>
            <path d="M72.2820665,37 L107.561019,60.7959537 C106.654526,69.0640378 103.800853,76.7987199 99,84 C93.6666667,92 86.255598,98.3333333 76.766794,103 L53.8651713,77.9724665 L56,75.3 L58.2162977,73 L56.700719,71.1753857 L58.2162977,67.5423974 L75.1478733,48.2871479 L70,39 L72.2820665,37 Z" id="矩形" fill-opacity="0.05" fill="#000000"></path>
            <path d="M71.3473603,48.5142226 C70.1351572,46.7983576 68.5200245,44.5224889 67.6731896,43.3615056 L40.1391048,43.3615056 L36.5366419,48.4493441 L58.2111757,73.0297509 L79.73205,48.4117829 L71.8732175,37 L36.1388344,37 L28,48.5073933 L53.9121229,77.9724665 L56.3092119,75.2065945 L32.6439332,48.3195872 L37.8854313,40.8346595 L70.0856446,40.8346595 L75.1478733,48.2871479 L58.2162977,67.5423974 L41.2830148,48.1659276 L42.0939958,47.0425055 L65.6978107,47.0425055 L66.5856214,48.251294 L55.7270129,60.5884489 L58.2145904,63.3816382 L71.3473603,48.5159299 L71.3473603,48.5142226 Z" id="路径" fill="#FFFFFF" fill-rule="nonzero"></path>
            <polygon id="路径" fill="#FFFFFF" fill-rule="nonzero" points="45.5752384 49.2620324 53.8284638 58.4594104 62.1551043 49.2620324"></polygon>
        </g>
    </g>
</svg>